<?xml version="1.0" encoding="utf-8" standalone="no"?>
<!DOCTYPE svg PUBLIC "-//W3C//DTD SVG 1.1//EN"
  "http://www.w3.org/Graphics/SVG/1.1/DTD/svg11.dtd">
<svg xmlns:xlink="http://www.w3.org/1999/xlink" width="424.0075pt" height="325.986375pt" viewBox="0 0 424.0075 325.986375" xmlns="http://www.w3.org/2000/svg" version="1.1">
 <metadata>
  <rdf:RDF xmlns:dc="http://purl.org/dc/elements/1.1/" xmlns:cc="http://creativecommons.org/ns#" xmlns:rdf="http://www.w3.org/1999/02/22-rdf-syntax-ns#">
   <cc:Work>
    <dc:type rdf:resource="http://purl.org/dc/dcmitype/StillImage"/>
    <dc:date>2023-05-12T10:11:58.780115</dc:date>
    <dc:format>image/svg+xml</dc:format>
    <dc:creator>
     <cc:Agent>
      <dc:title>Matplotlib v3.6.2, https://matplotlib.org/</dc:title>
     </cc:Agent>
    </dc:creator>
   </cc:Work>
  </rdf:RDF>
 </metadata>
 <defs>
  <style type="text/css">*{stroke-linejoin: round; stroke-linecap: butt}</style>
 </defs>
 <g id="figure_1">
  <g id="patch_1">
   <path d="M 0 325.986375 
L 424.0075 325.986375 
L 424.0075 0 
L 0 0 
z
" style="fill: #ffffff"/>
  </g>
  <g id="axes_1">
   <g id="patch_2">
    <path d="M 50.14375 288.430125 
L 407.26375 288.430125 
L 407.26375 22.318125 
L 50.14375 22.318125 
z
" style="fill: #ffffff"/>
   </g>
   <g id="matplotlib.axis_1">
    <g id="xtick_1">
     <g id="line2d_1">
      <defs>
       <path id="m751acaceb4" d="M 0 0 
L 0 3.5 
" style="stroke: #000000; stroke-width: 0.8"/>
      </defs>
      <g>
       <use xlink:href="#m751acaceb4" x="50.14375" y="288.430125" style="stroke: #000000; stroke-width: 0.8"/>
      </g>
     </g>
     <g id="text_1">
      <!-- 0 -->
      <g transform="translate(46.9625 303.028562) scale(0.1 -0.1)">
       <defs>
        <path id="DejaVuSans-30" d="M 2034 4250 
Q 1547 4250 1301 3770 
Q 1056 3291 1056 2328 
Q 1056 1369 1301 889 
Q 1547 409 2034 409 
Q 2525 409 2770 889 
Q 3016 1369 3016 2328 
Q 3016 3291 2770 3770 
Q 2525 4250 2034 4250 
z
M 2034 4750 
Q 2819 4750 3233 4129 
Q 3647 3509 3647 2328 
Q 3647 1150 3233 529 
Q 2819 -91 2034 -91 
Q 1250 -91 836 529 
Q 422 1150 422 2328 
Q 422 3509 836 4129 
Q 1250 4750 2034 4750 
z
" transform="scale(0.015625)"/>
       </defs>
       <use xlink:href="#DejaVuSans-30"/>
      </g>
     </g>
    </g>
    <g id="xtick_2">
     <g id="line2d_2">
      <g>
       <use xlink:href="#m751acaceb4" x="121.56775" y="288.430125" style="stroke: #000000; stroke-width: 0.8"/>
      </g>
     </g>
     <g id="text_2">
      <!-- 20 -->
      <g transform="translate(115.20525 303.028562) scale(0.1 -0.1)">
       <defs>
        <path id="DejaVuSans-32" d="M 1228 531 
L 3431 531 
L 3431 0 
L 469 0 
L 469 531 
Q 828 903 1448 1529 
Q 2069 2156 2228 2338 
Q 2531 2678 2651 2914 
Q 2772 3150 2772 3378 
Q 2772 3750 2511 3984 
Q 2250 4219 1831 4219 
Q 1534 4219 1204 4116 
Q 875 4013 500 3803 
L 500 4441 
Q 881 4594 1212 4672 
Q 1544 4750 1819 4750 
Q 2544 4750 2975 4387 
Q 3406 4025 3406 3419 
Q 3406 3131 3298 2873 
Q 3191 2616 2906 2266 
Q 2828 2175 2409 1742 
Q 1991 1309 1228 531 
z
" transform="scale(0.015625)"/>
       </defs>
       <use xlink:href="#DejaVuSans-32"/>
       <use xlink:href="#DejaVuSans-30" x="63.623047"/>
      </g>
     </g>
    </g>
    <g id="xtick_3">
     <g id="line2d_3">
      <g>
       <use xlink:href="#m751acaceb4" x="192.99175" y="288.430125" style="stroke: #000000; stroke-width: 0.8"/>
      </g>
     </g>
     <g id="text_3">
      <!-- 40 -->
      <g transform="translate(186.62925 303.028562) scale(0.1 -0.1)">
       <defs>
        <path id="DejaVuSans-34" d="M 2419 4116 
L 825 1625 
L 2419 1625 
L 2419 4116 
z
M 2253 4666 
L 3047 4666 
L 3047 1625 
L 3713 1625 
L 3713 1100 
L 3047 1100 
L 3047 0 
L 2419 0 
L 2419 1100 
L 313 1100 
L 313 1709 
L 2253 4666 
z
" transform="scale(0.015625)"/>
       </defs>
       <use xlink:href="#DejaVuSans-34"/>
       <use xlink:href="#DejaVuSans-30" x="63.623047"/>
      </g>
     </g>
    </g>
    <g id="xtick_4">
     <g id="line2d_4">
      <g>
       <use xlink:href="#m751acaceb4" x="264.41575" y="288.430125" style="stroke: #000000; stroke-width: 0.8"/>
      </g>
     </g>
     <g id="text_4">
      <!-- 60 -->
      <g transform="translate(258.05325 303.028562) scale(0.1 -0.1)">
       <defs>
        <path id="DejaVuSans-36" d="M 2113 2584 
Q 1688 2584 1439 2293 
Q 1191 2003 1191 1497 
Q 1191 994 1439 701 
Q 1688 409 2113 409 
Q 2538 409 2786 701 
Q 3034 994 3034 1497 
Q 3034 2003 2786 2293 
Q 2538 2584 2113 2584 
z
M 3366 4563 
L 3366 3988 
Q 3128 4100 2886 4159 
Q 2644 4219 2406 4219 
Q 1781 4219 1451 3797 
Q 1122 3375 1075 2522 
Q 1259 2794 1537 2939 
Q 1816 3084 2150 3084 
Q 2853 3084 3261 2657 
Q 3669 2231 3669 1497 
Q 3669 778 3244 343 
Q 2819 -91 2113 -91 
Q 1303 -91 875 529 
Q 447 1150 447 2328 
Q 447 3434 972 4092 
Q 1497 4750 2381 4750 
Q 2619 4750 2861 4703 
Q 3103 4656 3366 4563 
z
" transform="scale(0.015625)"/>
       </defs>
       <use xlink:href="#DejaVuSans-36"/>
       <use xlink:href="#DejaVuSans-30" x="63.623047"/>
      </g>
     </g>
    </g>
    <g id="xtick_5">
     <g id="line2d_5">
      <g>
       <use xlink:href="#m751acaceb4" x="335.83975" y="288.430125" style="stroke: #000000; stroke-width: 0.8"/>
      </g>
     </g>
     <g id="text_5">
      <!-- 80 -->
      <g transform="translate(329.47725 303.028562) scale(0.1 -0.1)">
       <defs>
        <path id="DejaVuSans-38" d="M 2034 2216 
Q 1584 2216 1326 1975 
Q 1069 1734 1069 1313 
Q 1069 891 1326 650 
Q 1584 409 2034 409 
Q 2484 409 2743 651 
Q 3003 894 3003 1313 
Q 3003 1734 2745 1975 
Q 2488 2216 2034 2216 
z
M 1403 2484 
Q 997 2584 770 2862 
Q 544 3141 544 3541 
Q 544 4100 942 4425 
Q 1341 4750 2034 4750 
Q 2731 4750 3128 4425 
Q 3525 4100 3525 3541 
Q 3525 3141 3298 2862 
Q 3072 2584 2669 2484 
Q 3125 2378 3379 2068 
Q 3634 1759 3634 1313 
Q 3634 634 3220 271 
Q 2806 -91 2034 -91 
Q 1263 -91 848 271 
Q 434 634 434 1313 
Q 434 1759 690 2068 
Q 947 2378 1403 2484 
z
M 1172 3481 
Q 1172 3119 1398 2916 
Q 1625 2713 2034 2713 
Q 2441 2713 2670 2916 
Q 2900 3119 2900 3481 
Q 2900 3844 2670 4047 
Q 2441 4250 2034 4250 
Q 1625 4250 1398 4047 
Q 1172 3844 1172 3481 
z
" transform="scale(0.015625)"/>
       </defs>
       <use xlink:href="#DejaVuSans-38"/>
       <use xlink:href="#DejaVuSans-30" x="63.623047"/>
      </g>
     </g>
    </g>
    <g id="xtick_6">
     <g id="line2d_6">
      <g>
       <use xlink:href="#m751acaceb4" x="407.26375" y="288.430125" style="stroke: #000000; stroke-width: 0.8"/>
      </g>
     </g>
     <g id="text_6">
      <!-- 100 -->
      <g transform="translate(397.72 303.028562) scale(0.1 -0.1)">
       <defs>
        <path id="DejaVuSans-31" d="M 794 531 
L 1825 531 
L 1825 4091 
L 703 3866 
L 703 4441 
L 1819 4666 
L 2450 4666 
L 2450 531 
L 3481 531 
L 3481 0 
L 794 0 
L 794 531 
z
" transform="scale(0.015625)"/>
       </defs>
       <use xlink:href="#DejaVuSans-31"/>
       <use xlink:href="#DejaVuSans-30" x="63.623047"/>
       <use xlink:href="#DejaVuSans-30" x="127.246094"/>
      </g>
     </g>
    </g>
    <g id="text_7">
     <!-- Score -->
     <g transform="translate(214.701406 316.706687) scale(0.1 -0.1)">
      <defs>
       <path id="DejaVuSans-53" d="M 3425 4513 
L 3425 3897 
Q 3066 4069 2747 4153 
Q 2428 4238 2131 4238 
Q 1616 4238 1336 4038 
Q 1056 3838 1056 3469 
Q 1056 3159 1242 3001 
Q 1428 2844 1947 2747 
L 2328 2669 
Q 3034 2534 3370 2195 
Q 3706 1856 3706 1288 
Q 3706 609 3251 259 
Q 2797 -91 1919 -91 
Q 1588 -91 1214 -16 
Q 841 59 441 206 
L 441 856 
Q 825 641 1194 531 
Q 1563 422 1919 422 
Q 2459 422 2753 634 
Q 3047 847 3047 1241 
Q 3047 1584 2836 1778 
Q 2625 1972 2144 2069 
L 1759 2144 
Q 1053 2284 737 2584 
Q 422 2884 422 3419 
Q 422 4038 858 4394 
Q 1294 4750 2059 4750 
Q 2388 4750 2728 4690 
Q 3069 4631 3425 4513 
z
" transform="scale(0.015625)"/>
       <path id="DejaVuSans-63" d="M 3122 3366 
L 3122 2828 
Q 2878 2963 2633 3030 
Q 2388 3097 2138 3097 
Q 1578 3097 1268 2742 
Q 959 2388 959 1747 
Q 959 1106 1268 751 
Q 1578 397 2138 397 
Q 2388 397 2633 464 
Q 2878 531 3122 666 
L 3122 134 
Q 2881 22 2623 -34 
Q 2366 -91 2075 -91 
Q 1284 -91 818 406 
Q 353 903 353 1747 
Q 353 2603 823 3093 
Q 1294 3584 2113 3584 
Q 2378 3584 2631 3529 
Q 2884 3475 3122 3366 
z
" transform="scale(0.015625)"/>
       <path id="DejaVuSans-6f" d="M 1959 3097 
Q 1497 3097 1228 2736 
Q 959 2375 959 1747 
Q 959 1119 1226 758 
Q 1494 397 1959 397 
Q 2419 397 2687 759 
Q 2956 1122 2956 1747 
Q 2956 2369 2687 2733 
Q 2419 3097 1959 3097 
z
M 1959 3584 
Q 2709 3584 3137 3096 
Q 3566 2609 3566 1747 
Q 3566 888 3137 398 
Q 2709 -91 1959 -91 
Q 1206 -91 779 398 
Q 353 888 353 1747 
Q 353 2609 779 3096 
Q 1206 3584 1959 3584 
z
" transform="scale(0.015625)"/>
       <path id="DejaVuSans-72" d="M 2631 2963 
Q 2534 3019 2420 3045 
Q 2306 3072 2169 3072 
Q 1681 3072 1420 2755 
Q 1159 2438 1159 1844 
L 1159 0 
L 581 0 
L 581 3500 
L 1159 3500 
L 1159 2956 
Q 1341 3275 1631 3429 
Q 1922 3584 2338 3584 
Q 2397 3584 2469 3576 
Q 2541 3569 2628 3553 
L 2631 2963 
z
" transform="scale(0.015625)"/>
       <path id="DejaVuSans-65" d="M 3597 1894 
L 3597 1613 
L 953 1613 
Q 991 1019 1311 708 
Q 1631 397 2203 397 
Q 2534 397 2845 478 
Q 3156 559 3463 722 
L 3463 178 
Q 3153 47 2828 -22 
Q 2503 -91 2169 -91 
Q 1331 -91 842 396 
Q 353 884 353 1716 
Q 353 2575 817 3079 
Q 1281 3584 2069 3584 
Q 2775 3584 3186 3129 
Q 3597 2675 3597 1894 
z
M 3022 2063 
Q 3016 2534 2758 2815 
Q 2500 3097 2075 3097 
Q 1594 3097 1305 2825 
Q 1016 2553 972 2059 
L 3022 2063 
z
" transform="scale(0.015625)"/>
      </defs>
      <use xlink:href="#DejaVuSans-53"/>
      <use xlink:href="#DejaVuSans-63" x="63.476562"/>
      <use xlink:href="#DejaVuSans-6f" x="118.457031"/>
      <use xlink:href="#DejaVuSans-72" x="179.638672"/>
      <use xlink:href="#DejaVuSans-65" x="218.501953"/>
     </g>
    </g>
   </g>
   <g id="matplotlib.axis_2">
    <g id="ytick_1">
     <g id="line2d_7">
      <defs>
       <path id="m41a19d18e7" d="M 0 0 
L -3.5 0 
" style="stroke: #000000; stroke-width: 0.8"/>
      </defs>
      <g>
       <use xlink:href="#m41a19d18e7" x="50.14375" y="276.336258" style="stroke: #000000; stroke-width: 0.8"/>
      </g>
     </g>
     <g id="text_8">
      <!-- 0.00 -->
      <g transform="translate(20.878125 280.135477) scale(0.1 -0.1)">
       <defs>
        <path id="DejaVuSans-2e" d="M 684 794 
L 1344 794 
L 1344 0 
L 684 0 
L 684 794 
z
" transform="scale(0.015625)"/>
       </defs>
       <use xlink:href="#DejaVuSans-30"/>
       <use xlink:href="#DejaVuSans-2e" x="63.623047"/>
       <use xlink:href="#DejaVuSans-30" x="95.410156"/>
       <use xlink:href="#DejaVuSans-30" x="159.033203"/>
      </g>
     </g>
    </g>
    <g id="ytick_2">
     <g id="line2d_8">
      <g>
       <use xlink:href="#m41a19d18e7" x="50.14375" y="235.485659" style="stroke: #000000; stroke-width: 0.8"/>
      </g>
     </g>
     <g id="text_9">
      <!-- 0.01 -->
      <g transform="translate(20.878125 239.284878) scale(0.1 -0.1)">
       <use xlink:href="#DejaVuSans-30"/>
       <use xlink:href="#DejaVuSans-2e" x="63.623047"/>
       <use xlink:href="#DejaVuSans-30" x="95.410156"/>
       <use xlink:href="#DejaVuSans-31" x="159.033203"/>
      </g>
     </g>
    </g>
    <g id="ytick_3">
     <g id="line2d_9">
      <g>
       <use xlink:href="#m41a19d18e7" x="50.14375" y="194.63506" style="stroke: #000000; stroke-width: 0.8"/>
      </g>
     </g>
     <g id="text_10">
      <!-- 0.02 -->
      <g transform="translate(20.878125 198.434278) scale(0.1 -0.1)">
       <use xlink:href="#DejaVuSans-30"/>
       <use xlink:href="#DejaVuSans-2e" x="63.623047"/>
       <use xlink:href="#DejaVuSans-30" x="95.410156"/>
       <use xlink:href="#DejaVuSans-32" x="159.033203"/>
      </g>
     </g>
    </g>
    <g id="ytick_4">
     <g id="line2d_10">
      <g>
       <use xlink:href="#m41a19d18e7" x="50.14375" y="153.784461" style="stroke: #000000; stroke-width: 0.8"/>
      </g>
     </g>
     <g id="text_11">
      <!-- 0.03 -->
      <g transform="translate(20.878125 157.583679) scale(0.1 -0.1)">
       <defs>
        <path id="DejaVuSans-33" d="M 2597 2516 
Q 3050 2419 3304 2112 
Q 3559 1806 3559 1356 
Q 3559 666 3084 287 
Q 2609 -91 1734 -91 
Q 1441 -91 1130 -33 
Q 819 25 488 141 
L 488 750 
Q 750 597 1062 519 
Q 1375 441 1716 441 
Q 2309 441 2620 675 
Q 2931 909 2931 1356 
Q 2931 1769 2642 2001 
Q 2353 2234 1838 2234 
L 1294 2234 
L 1294 2753 
L 1863 2753 
Q 2328 2753 2575 2939 
Q 2822 3125 2822 3475 
Q 2822 3834 2567 4026 
Q 2313 4219 1838 4219 
Q 1578 4219 1281 4162 
Q 984 4106 628 3988 
L 628 4550 
Q 988 4650 1302 4700 
Q 1616 4750 1894 4750 
Q 2613 4750 3031 4423 
Q 3450 4097 3450 3541 
Q 3450 3153 3228 2886 
Q 3006 2619 2597 2516 
z
" transform="scale(0.015625)"/>
       </defs>
       <use xlink:href="#DejaVuSans-30"/>
       <use xlink:href="#DejaVuSans-2e" x="63.623047"/>
       <use xlink:href="#DejaVuSans-30" x="95.410156"/>
       <use xlink:href="#DejaVuSans-33" x="159.033203"/>
      </g>
     </g>
    </g>
    <g id="ytick_5">
     <g id="line2d_11">
      <g>
       <use xlink:href="#m41a19d18e7" x="50.14375" y="112.933862" style="stroke: #000000; stroke-width: 0.8"/>
      </g>
     </g>
     <g id="text_12">
      <!-- 0.04 -->
      <g transform="translate(20.878125 116.73308) scale(0.1 -0.1)">
       <use xlink:href="#DejaVuSans-30"/>
       <use xlink:href="#DejaVuSans-2e" x="63.623047"/>
       <use xlink:href="#DejaVuSans-30" x="95.410156"/>
       <use xlink:href="#DejaVuSans-34" x="159.033203"/>
      </g>
     </g>
    </g>
    <g id="ytick_6">
     <g id="line2d_12">
      <g>
       <use xlink:href="#m41a19d18e7" x="50.14375" y="72.083262" style="stroke: #000000; stroke-width: 0.8"/>
      </g>
     </g>
     <g id="text_13">
      <!-- 0.05 -->
      <g transform="translate(20.878125 75.882481) scale(0.1 -0.1)">
       <defs>
        <path id="DejaVuSans-35" d="M 691 4666 
L 3169 4666 
L 3169 4134 
L 1269 4134 
L 1269 2991 
Q 1406 3038 1543 3061 
Q 1681 3084 1819 3084 
Q 2600 3084 3056 2656 
Q 3513 2228 3513 1497 
Q 3513 744 3044 326 
Q 2575 -91 1722 -91 
Q 1428 -91 1123 -41 
Q 819 9 494 109 
L 494 744 
Q 775 591 1075 516 
Q 1375 441 1709 441 
Q 2250 441 2565 725 
Q 2881 1009 2881 1497 
Q 2881 1984 2565 2268 
Q 2250 2553 1709 2553 
Q 1456 2553 1204 2497 
Q 953 2441 691 2322 
L 691 4666 
z
" transform="scale(0.015625)"/>
       </defs>
       <use xlink:href="#DejaVuSans-30"/>
       <use xlink:href="#DejaVuSans-2e" x="63.623047"/>
       <use xlink:href="#DejaVuSans-30" x="95.410156"/>
       <use xlink:href="#DejaVuSans-35" x="159.033203"/>
      </g>
     </g>
    </g>
    <g id="ytick_7">
     <g id="line2d_13">
      <g>
       <use xlink:href="#m41a19d18e7" x="50.14375" y="31.232663" style="stroke: #000000; stroke-width: 0.8"/>
      </g>
     </g>
     <g id="text_14">
      <!-- 0.06 -->
      <g transform="translate(20.878125 35.031882) scale(0.1 -0.1)">
       <use xlink:href="#DejaVuSans-30"/>
       <use xlink:href="#DejaVuSans-2e" x="63.623047"/>
       <use xlink:href="#DejaVuSans-30" x="95.410156"/>
       <use xlink:href="#DejaVuSans-36" x="159.033203"/>
      </g>
     </g>
    </g>
    <g id="text_15">
     <!-- Density -->
     <g transform="translate(14.798438 174.382719) rotate(-90) scale(0.1 -0.1)">
      <defs>
       <path id="DejaVuSans-44" d="M 1259 4147 
L 1259 519 
L 2022 519 
Q 2988 519 3436 956 
Q 3884 1394 3884 2338 
Q 3884 3275 3436 3711 
Q 2988 4147 2022 4147 
L 1259 4147 
z
M 628 4666 
L 1925 4666 
Q 3281 4666 3915 4102 
Q 4550 3538 4550 2338 
Q 4550 1131 3912 565 
Q 3275 0 1925 0 
L 628 0 
L 628 4666 
z
" transform="scale(0.015625)"/>
       <path id="DejaVuSans-6e" d="M 3513 2113 
L 3513 0 
L 2938 0 
L 2938 2094 
Q 2938 2591 2744 2837 
Q 2550 3084 2163 3084 
Q 1697 3084 1428 2787 
Q 1159 2491 1159 1978 
L 1159 0 
L 581 0 
L 581 3500 
L 1159 3500 
L 1159 2956 
Q 1366 3272 1645 3428 
Q 1925 3584 2291 3584 
Q 2894 3584 3203 3211 
Q 3513 2838 3513 2113 
z
" transform="scale(0.015625)"/>
       <path id="DejaVuSans-73" d="M 2834 3397 
L 2834 2853 
Q 2591 2978 2328 3040 
Q 2066 3103 1784 3103 
Q 1356 3103 1142 2972 
Q 928 2841 928 2578 
Q 928 2378 1081 2264 
Q 1234 2150 1697 2047 
L 1894 2003 
Q 2506 1872 2764 1633 
Q 3022 1394 3022 966 
Q 3022 478 2636 193 
Q 2250 -91 1575 -91 
Q 1294 -91 989 -36 
Q 684 19 347 128 
L 347 722 
Q 666 556 975 473 
Q 1284 391 1588 391 
Q 1994 391 2212 530 
Q 2431 669 2431 922 
Q 2431 1156 2273 1281 
Q 2116 1406 1581 1522 
L 1381 1569 
Q 847 1681 609 1914 
Q 372 2147 372 2553 
Q 372 3047 722 3315 
Q 1072 3584 1716 3584 
Q 2034 3584 2315 3537 
Q 2597 3491 2834 3397 
z
" transform="scale(0.015625)"/>
       <path id="DejaVuSans-69" d="M 603 3500 
L 1178 3500 
L 1178 0 
L 603 0 
L 603 3500 
z
M 603 4863 
L 1178 4863 
L 1178 4134 
L 603 4134 
L 603 4863 
z
" transform="scale(0.015625)"/>
       <path id="DejaVuSans-74" d="M 1172 4494 
L 1172 3500 
L 2356 3500 
L 2356 3053 
L 1172 3053 
L 1172 1153 
Q 1172 725 1289 603 
Q 1406 481 1766 481 
L 2356 481 
L 2356 0 
L 1766 0 
Q 1100 0 847 248 
Q 594 497 594 1153 
L 594 3053 
L 172 3053 
L 172 3500 
L 594 3500 
L 594 4494 
L 1172 4494 
z
" transform="scale(0.015625)"/>
       <path id="DejaVuSans-79" d="M 2059 -325 
Q 1816 -950 1584 -1140 
Q 1353 -1331 966 -1331 
L 506 -1331 
L 506 -850 
L 844 -850 
Q 1081 -850 1212 -737 
Q 1344 -625 1503 -206 
L 1606 56 
L 191 3500 
L 800 3500 
L 1894 763 
L 2988 3500 
L 3597 3500 
L 2059 -325 
z
" transform="scale(0.015625)"/>
      </defs>
      <use xlink:href="#DejaVuSans-44"/>
      <use xlink:href="#DejaVuSans-65" x="77.001953"/>
      <use xlink:href="#DejaVuSans-6e" x="138.525391"/>
      <use xlink:href="#DejaVuSans-73" x="201.904297"/>
      <use xlink:href="#DejaVuSans-69" x="254.003906"/>
      <use xlink:href="#DejaVuSans-74" x="281.787109"/>
      <use xlink:href="#DejaVuSans-79" x="320.996094"/>
     </g>
    </g>
   </g>
   <g id="line2d_14">
    <path d="M 228.70375 276.307173 
L 238.951438 276.139617 
L 244.909396 275.830019 
L 249.437444 275.378786 
L 253.250537 274.78558 
L 256.825312 274.007228 
L 260.161768 273.063623 
L 263.736543 271.81971 
L 267.787954 270.164007 
L 279.465552 265.201613 
L 282.325372 264.313946 
L 285.185191 263.666575 
L 288.045011 263.2668 
L 291.143149 263.065749 
L 298.054381 262.710376 
L 299.960927 262.338566 
L 301.629155 261.788336 
L 303.059065 261.094285 
L 304.488975 260.144988 
L 305.918885 258.890611 
L 307.348795 257.279713 
L 308.778705 255.260243 
L 310.208615 252.780713 
L 311.638525 249.791586 
L 313.068435 246.246837 
L 314.498345 242.105694 
L 315.928255 237.334512 
L 317.596483 230.939669 
L 319.264711 223.634645 
L 321.171258 214.17925 
L 323.077804 203.595845 
L 325.222669 190.477284 
L 327.84417 173.049867 
L 337.376903 108.141294 
L 339.28345 97.520797 
L 340.71336 90.622335 
L 342.14327 84.789548 
L 343.334861 80.827229 
L 344.288134 78.285884 
L 345.241408 76.327986 
L 345.956363 75.252944 
L 346.671318 74.520921 
L 347.386273 74.135143 
L 347.862909 74.071046 
L 348.339546 74.161375 
L 349.054501 74.585287 
L 349.769456 75.352324 
L 350.484411 76.457379 
L 351.437684 78.444242 
L 352.390957 80.997766 
L 353.582549 84.944692 
L 354.77414 89.66997 
L 356.20405 96.260609 
L 357.872279 105.028542 
L 360.017143 117.599748 
L 363.591918 140.242917 
L 367.166693 162.544234 
L 369.311558 174.677181 
L 371.218104 184.20709 
L 372.886333 191.363031 
L 374.316242 196.511756 
L 375.507834 200.061498 
L 376.699426 202.913269 
L 377.652699 204.683832 
L 378.605972 205.99864 
L 379.320927 206.687243 
L 380.035882 207.123753 
L 380.750837 207.312147 
L 381.465792 207.257619 
L 382.180747 206.966544 
L 382.895702 206.446431 
L 383.848975 205.411688 
L 384.802248 204.008434 
L 385.99384 201.776529 
L 387.185432 199.067742 
L 388.615342 195.277765 
L 390.521888 189.507733 
L 393.14339 180.762738 
L 397.433119 166.459498 
L 399.339666 160.896231 
L 400.769576 157.295318 
L 402.199486 154.298505 
L 403.391077 152.325376 
L 404.344351 151.119965 
L 405.297624 150.264554 
L 406.012579 149.860559 
L 406.727534 149.664702 
L 407.442489 149.679666 
L 408.157444 149.90686 
L 408.872399 150.34642 
L 409.825672 151.260743 
L 410.778945 152.544456 
L 411.732218 154.18781 
L 412.92381 156.72722 
L 414.115402 159.774587 
L 415.545312 164.045071 
L 417.21354 169.770522 
L 419.120086 177.116481 
L 421.741588 188.202255 
L 425.0075 202.756383 
L 425.0075 202.756383 
" clip-path="url(#pebae519d88)" style="fill: none; stroke: #1f77b4; stroke-width: 1.5; stroke-linecap: square"/>
   </g>
   <g id="line2d_15">
    <path d="M -1 271.240501 
L 20.294381 268.96529 
L 30.30375 268.137346 
L 38.883209 267.65546 
L 46.747714 267.438587 
L 54.612218 267.45453 
L 62.476723 267.701972 
L 71.056182 268.212772 
L 80.350597 268.996931 
L 93.219786 270.333657 
L 118.243209 272.983965 
L 128.967534 273.877344 
L 138.976903 274.495234 
L 148.271318 274.854517 
L 157.565732 274.984877 
L 166.145191 274.878772 
L 174.009696 274.564911 
L 181.159245 274.073981 
L 188.308795 273.359075 
L 194.74339 272.498834 
L 201.177984 271.408983 
L 206.897624 270.229115 
L 212.617264 268.835557 
L 218.336903 267.216492 
L 224.056543 265.363553 
L 229.776182 263.272605 
L 235.495822 260.944315 
L 241.215462 258.384466 
L 247.650056 255.241687 
L 254.084651 251.84291 
L 261.2342 247.803229 
L 269.098705 243.098 
L 279.108074 236.832544 
L 306.276363 219.646669 
L 314.140867 215.030125 
L 320.575462 211.503422 
L 326.295101 208.606268 
L 332.014741 205.973161 
L 337.019426 203.915604 
L 342.02411 202.113797 
L 346.31384 200.790806 
L 350.60357 199.687044 
L 354.8933 198.815681 
L 359.183029 198.188867 
L 363.472759 197.817556 
L 367.047534 197.710257 
L 370.622309 197.791759 
L 374.197083 198.065881 
L 377.771858 198.53546 
L 381.346633 199.202232 
L 384.921408 200.06671 
L 388.496182 201.128063 
L 392.785912 202.658219 
L 397.075642 204.461509 
L 401.365372 206.527465 
L 405.655101 208.841982 
L 409.944831 211.387256 
L 414.949516 214.619595 
L 420.669155 218.610901 
L 425.0075 221.809849 
L 425.0075 221.809849 
" clip-path="url(#pebae519d88)" style="fill: none; stroke: #ff7f0e; stroke-width: 1.5; stroke-linecap: square"/>
   </g>
   <g id="line2d_16">
    <path d="M 317.98375 241.197565 
L 319.532819 233.606377 
L 321.081888 224.915555 
L 322.750116 214.299023 
L 324.537504 201.494021 
L 326.563209 185.302922 
L 328.946393 164.308752 
L 332.282849 132.639299 
L 336.691738 90.972465 
L 338.836603 72.854723 
L 340.504831 60.55673 
L 341.934741 51.603313 
L 343.126333 45.433968 
L 344.198765 40.983313 
L 345.152038 37.958326 
L 345.986152 36.059497 
L 346.701107 35.001279 
L 347.296903 34.526271 
L 347.77354 34.414125 
L 348.250176 34.540362 
L 348.726813 34.904482 
L 349.322609 35.692227 
L 350.037564 37.119891 
L 350.752519 39.064123 
L 351.586633 41.96704 
L 352.539906 46.087759 
L 353.612339 51.687344 
L 354.923089 59.796805 
L 356.472158 70.942027 
L 358.259546 85.485477 
L 360.761888 107.849059 
L 366.839005 162.98121 
L 368.864711 179.06945 
L 370.652098 191.544277 
L 372.201167 200.833864 
L 373.631077 208.039851 
L 374.822669 212.991232 
L 375.895101 216.608007 
L 376.848375 219.148922 
L 377.801648 221.055737 
L 378.635762 222.207996 
L 379.350717 222.817065 
L 379.946513 223.061769 
L 380.542309 223.07161 
L 381.138104 222.851081 
L 381.7339 222.405282 
L 382.448855 221.581016 
L 383.282969 220.23442 
L 384.236242 218.211727 
L 385.308675 215.358299 
L 386.500267 211.530627 
L 387.930176 206.131557 
L 389.598405 198.912165 
L 391.74327 188.581483 
L 398.654501 154.421589 
L 400.322729 147.652263 
L 401.752639 142.752565 
L 402.94423 139.415188 
L 404.016663 137.052003 
L 404.969936 135.494467 
L 405.80405 134.56855 
L 406.519005 134.107635 
L 407.114801 133.961299 
L 407.710597 134.032353 
L 408.306393 134.320854 
L 409.021348 134.952607 
L 409.736303 135.8923 
L 410.570417 137.369969 
L 411.52369 139.545795 
L 412.596122 142.584835 
L 413.787714 146.644504 
L 415.217624 152.367913 
L 416.885852 160.041391 
L 418.911558 170.461538 
L 422.009696 187.736459 
L 425.0075 204.672859 
L 425.0075 204.672859 
" clip-path="url(#pebae519d88)" style="fill: none; stroke: #2ca02c; stroke-width: 1.5; stroke-linecap: square"/>
   </g>
   <g id="line2d_17">
    <path d="M -1 273.817642 
L 27.44393 272.150651 
L 38.883209 271.736142 
L 48.892579 271.589213 
L 58.901948 271.661671 
L 69.626273 271.9598 
L 84.640327 272.622827 
L 102.5142 273.379845 
L 111.808615 273.553588 
L 119.673119 273.484228 
L 126.822669 273.193791 
L 133.257264 272.708482 
L 138.976903 272.072814 
L 144.696543 271.224258 
L 150.416182 270.146056 
L 156.135822 268.8255 
L 161.855462 267.255041 
L 167.575101 265.433322 
L 173.294741 263.365988 
L 179.014381 261.066171 
L 185.448975 258.227016 
L 192.598525 254.807449 
L 201.177984 250.431591 
L 231.206092 234.833906 
L 237.640687 231.859792 
L 243.360327 229.436214 
L 249.079966 227.258448 
L 254.084651 225.580656 
L 259.089336 224.135418 
L 264.09402 222.937866 
L 269.098705 221.998348 
L 273.388435 221.402024 
L 278.393119 220.948522 
L 283.397804 220.747091 
L 288.402489 220.780512 
L 293.407173 221.023024 
L 299.126813 221.512159 
L 306.276363 222.348281 
L 325.580146 224.750559 
L 331.299786 225.196199 
L 337.019426 225.413282 
L 342.02411 225.39038 
L 347.028795 225.161877 
L 352.748435 224.661564 
L 359.183029 223.84215 
L 367.762489 222.489479 
L 378.486813 220.83016 
L 384.206453 220.189179 
L 388.496182 219.907575 
L 392.785912 219.843847 
L 396.360687 219.983712 
L 399.935462 220.317675 
L 403.510236 220.858991 
L 407.085011 221.616435 
L 410.659786 222.594026 
L 414.234561 223.790913 
L 417.809336 225.201411 
L 422.099065 227.161128 
L 425.0075 228.643575 
L 425.0075 228.643575 
" clip-path="url(#pebae519d88)" style="fill: none; stroke: #d62728; stroke-width: 1.5; stroke-linecap: square"/>
   </g>
   <g id="line2d_18">
    <path d="M -1 270.677492 
L 28.87384 267.865318 
L 42.457984 266.837874 
L 54.612218 266.135184 
L 67.481408 265.611617 
L 86.070236 265.110278 
L 103.229155 264.586365 
L 113.95348 264.03157 
L 122.532939 263.375139 
L 130.397444 262.565678 
L 138.261948 261.532903 
L 146.126453 260.266116 
L 153.990957 258.769683 
L 162.570417 256.89975 
L 172.579786 254.468818 
L 188.308795 250.368208 
L 201.892939 246.904698 
L 211.187354 244.760458 
L 219.051858 243.164673 
L 226.916363 241.805955 
L 234.065912 240.789337 
L 241.930417 239.907237 
L 249.794921 239.249276 
L 259.089336 238.703323 
L 272.67348 238.168087 
L 289.832399 237.463896 
L 299.126813 236.866722 
L 307.706273 236.103664 
L 316.285732 235.115118 
L 325.580146 233.802668 
L 336.304471 232.051799 
L 358.468074 228.361057 
L 366.332579 227.333877 
L 372.767173 226.720465 
L 378.486813 226.392695 
L 384.206453 226.30379 
L 389.211137 226.443464 
L 394.215822 226.800899 
L 399.220507 227.385527 
L 404.225191 228.201842 
L 409.229876 229.249165 
L 414.234561 230.521589 
L 419.239245 232.008106 
L 425.0075 233.966308 
L 425.0075 233.966308 
" clip-path="url(#pebae519d88)" style="fill: none; stroke: #9467bd; stroke-width: 1.5; stroke-linecap: square"/>
   </g>
   <g id="line2d_19">
    <path d="M 139.42375 276.325051 
L 158.727534 276.185468 
L 168.021948 275.911434 
L 174.81402 275.506105 
L 180.53366 274.956282 
L 185.895822 274.21293 
L 190.900507 273.282592 
L 195.547714 272.194585 
L 200.194921 270.887089 
L 205.199606 269.248457 
L 210.919245 267.129616 
L 218.068795 264.229036 
L 234.155282 257.375464 
L 243.449696 253.257785 
L 248.811858 250.652237 
L 253.101588 248.342964 
L 257.03384 245.985938 
L 260.608615 243.597692 
L 264.18339 240.936778 
L 267.400687 238.280665 
L 270.617984 235.354747 
L 273.835282 232.141904 
L 277.052579 228.630646 
L 280.627354 224.374645 
L 284.202128 219.754151 
L 288.134381 214.284351 
L 292.781588 207.392459 
L 300.646092 195.210237 
L 306.008255 187.122975 
L 309.583029 182.12914 
L 312.442849 178.487263 
L 314.945191 175.621179 
L 317.447534 173.098878 
L 319.592399 171.236633 
L 321.737264 169.667972 
L 323.882128 168.402879 
L 325.669516 167.583508 
L 327.456903 166.976715 
L 329.244291 166.57855 
L 331.031678 166.382298 
L 332.819065 166.378686 
L 334.96393 166.612234 
L 337.108795 167.082868 
L 339.25366 167.763911 
L 341.756002 168.785952 
L 344.615822 170.195937 
L 348.190597 172.21903 
L 353.552759 175.541497 
L 362.847173 181.309708 
L 369.281768 185.008101 
L 381.078525 191.695546 
L 385.010777 194.230578 
L 388.585552 196.81663 
L 391.802849 199.43379 
L 395.020146 202.367317 
L 398.237444 205.642698 
L 401.454741 209.267724 
L 404.672038 213.230498 
L 408.246813 217.989921 
L 412.536543 224.095598 
L 419.328615 234.230146 
L 425.0075 242.622197 
L 425.0075 242.622197 
" clip-path="url(#pebae519d88)" style="fill: none; stroke: #8c564b; stroke-width: 1.5; stroke-linecap: square"/>
   </g>
   <g id="patch_3">
    <path d="M 50.14375 288.430125 
L 50.14375 22.318125 
" style="fill: none; stroke: #000000; stroke-width: 0.8; stroke-linejoin: miter; stroke-linecap: square"/>
   </g>
   <g id="patch_4">
    <path d="M 407.26375 288.430125 
L 407.26375 22.318125 
" style="fill: none; stroke: #000000; stroke-width: 0.8; stroke-linejoin: miter; stroke-linecap: square"/>
   </g>
   <g id="patch_5">
    <path d="M 50.14375 288.430125 
L 407.26375 288.430125 
" style="fill: none; stroke: #000000; stroke-width: 0.8; stroke-linejoin: miter; stroke-linecap: square"/>
   </g>
   <g id="patch_6">
    <path d="M 50.14375 22.318125 
L 407.26375 22.318125 
" style="fill: none; stroke: #000000; stroke-width: 0.8; stroke-linejoin: miter; stroke-linecap: square"/>
   </g>
   <g id="text_16">
    <!-- Kaggles scores -->
    <g transform="translate(183.942813 16.318125) scale(0.12 -0.12)">
     <defs>
      <path id="DejaVuSans-4b" d="M 628 4666 
L 1259 4666 
L 1259 2694 
L 3353 4666 
L 4166 4666 
L 1850 2491 
L 4331 0 
L 3500 0 
L 1259 2247 
L 1259 0 
L 628 0 
L 628 4666 
z
" transform="scale(0.015625)"/>
      <path id="DejaVuSans-61" d="M 2194 1759 
Q 1497 1759 1228 1600 
Q 959 1441 959 1056 
Q 959 750 1161 570 
Q 1363 391 1709 391 
Q 2188 391 2477 730 
Q 2766 1069 2766 1631 
L 2766 1759 
L 2194 1759 
z
M 3341 1997 
L 3341 0 
L 2766 0 
L 2766 531 
Q 2569 213 2275 61 
Q 1981 -91 1556 -91 
Q 1019 -91 701 211 
Q 384 513 384 1019 
Q 384 1609 779 1909 
Q 1175 2209 1959 2209 
L 2766 2209 
L 2766 2266 
Q 2766 2663 2505 2880 
Q 2244 3097 1772 3097 
Q 1472 3097 1187 3025 
Q 903 2953 641 2809 
L 641 3341 
Q 956 3463 1253 3523 
Q 1550 3584 1831 3584 
Q 2591 3584 2966 3190 
Q 3341 2797 3341 1997 
z
" transform="scale(0.015625)"/>
      <path id="DejaVuSans-67" d="M 2906 1791 
Q 2906 2416 2648 2759 
Q 2391 3103 1925 3103 
Q 1463 3103 1205 2759 
Q 947 2416 947 1791 
Q 947 1169 1205 825 
Q 1463 481 1925 481 
Q 2391 481 2648 825 
Q 2906 1169 2906 1791 
z
M 3481 434 
Q 3481 -459 3084 -895 
Q 2688 -1331 1869 -1331 
Q 1566 -1331 1297 -1286 
Q 1028 -1241 775 -1147 
L 775 -588 
Q 1028 -725 1275 -790 
Q 1522 -856 1778 -856 
Q 2344 -856 2625 -561 
Q 2906 -266 2906 331 
L 2906 616 
Q 2728 306 2450 153 
Q 2172 0 1784 0 
Q 1141 0 747 490 
Q 353 981 353 1791 
Q 353 2603 747 3093 
Q 1141 3584 1784 3584 
Q 2172 3584 2450 3431 
Q 2728 3278 2906 2969 
L 2906 3500 
L 3481 3500 
L 3481 434 
z
" transform="scale(0.015625)"/>
      <path id="DejaVuSans-6c" d="M 603 4863 
L 1178 4863 
L 1178 0 
L 603 0 
L 603 4863 
z
" transform="scale(0.015625)"/>
      <path id="DejaVuSans-20" transform="scale(0.015625)"/>
     </defs>
     <use xlink:href="#DejaVuSans-4b"/>
     <use xlink:href="#DejaVuSans-61" x="63.826172"/>
     <use xlink:href="#DejaVuSans-67" x="125.105469"/>
     <use xlink:href="#DejaVuSans-67" x="188.582031"/>
     <use xlink:href="#DejaVuSans-6c" x="252.058594"/>
     <use xlink:href="#DejaVuSans-65" x="279.841797"/>
     <use xlink:href="#DejaVuSans-73" x="341.365234"/>
     <use xlink:href="#DejaVuSans-20" x="393.464844"/>
     <use xlink:href="#DejaVuSans-73" x="425.251953"/>
     <use xlink:href="#DejaVuSans-63" x="477.351562"/>
     <use xlink:href="#DejaVuSans-6f" x="532.332031"/>
     <use xlink:href="#DejaVuSans-72" x="593.513672"/>
     <use xlink:href="#DejaVuSans-65" x="632.376953"/>
     <use xlink:href="#DejaVuSans-73" x="693.900391"/>
    </g>
   </g>
   <g id="legend_1">
    <g id="patch_7">
     <path d="M 57.14375 118.386875 
L 164.348438 118.386875 
Q 166.348438 118.386875 166.348438 116.386875 
L 166.348438 29.318125 
Q 166.348438 27.318125 164.348438 27.318125 
L 57.14375 27.318125 
Q 55.14375 27.318125 55.14375 29.318125 
L 55.14375 116.386875 
Q 55.14375 118.386875 57.14375 118.386875 
z
" style="fill: #ffffff; opacity: 0.8; stroke: #cccccc; stroke-linejoin: miter"/>
    </g>
    <g id="line2d_20">
     <path d="M 59.14375 35.416562 
L 69.14375 35.416562 
L 79.14375 35.416562 
" style="fill: none; stroke: #1f77b4; stroke-width: 1.5; stroke-linecap: square"/>
    </g>
    <g id="text_17">
     <!-- Kaggle1 -->
     <g transform="translate(87.14375 38.916562) scale(0.1 -0.1)">
      <use xlink:href="#DejaVuSans-4b"/>
      <use xlink:href="#DejaVuSans-61" x="63.826172"/>
      <use xlink:href="#DejaVuSans-67" x="125.105469"/>
      <use xlink:href="#DejaVuSans-67" x="188.582031"/>
      <use xlink:href="#DejaVuSans-6c" x="252.058594"/>
      <use xlink:href="#DejaVuSans-65" x="279.841797"/>
      <use xlink:href="#DejaVuSans-31" x="341.365234"/>
     </g>
    </g>
    <g id="line2d_21">
     <path d="M 59.14375 50.094688 
L 69.14375 50.094688 
L 79.14375 50.094688 
" style="fill: none; stroke: #ff7f0e; stroke-width: 1.5; stroke-linecap: square"/>
    </g>
    <g id="text_18">
     <!-- Kaggle2 -->
     <g transform="translate(87.14375 53.594688) scale(0.1 -0.1)">
      <use xlink:href="#DejaVuSans-4b"/>
      <use xlink:href="#DejaVuSans-61" x="63.826172"/>
      <use xlink:href="#DejaVuSans-67" x="125.105469"/>
      <use xlink:href="#DejaVuSans-67" x="188.582031"/>
      <use xlink:href="#DejaVuSans-6c" x="252.058594"/>
      <use xlink:href="#DejaVuSans-65" x="279.841797"/>
      <use xlink:href="#DejaVuSans-32" x="341.365234"/>
     </g>
    </g>
    <g id="line2d_22">
     <path d="M 59.14375 64.772812 
L 69.14375 64.772812 
L 79.14375 64.772812 
" style="fill: none; stroke: #2ca02c; stroke-width: 1.5; stroke-linecap: square"/>
    </g>
    <g id="text_19">
     <!-- Kaggle3 -->
     <g transform="translate(87.14375 68.272812) scale(0.1 -0.1)">
      <use xlink:href="#DejaVuSans-4b"/>
      <use xlink:href="#DejaVuSans-61" x="63.826172"/>
      <use xlink:href="#DejaVuSans-67" x="125.105469"/>
      <use xlink:href="#DejaVuSans-67" x="188.582031"/>
      <use xlink:href="#DejaVuSans-6c" x="252.058594"/>
      <use xlink:href="#DejaVuSans-65" x="279.841797"/>
      <use xlink:href="#DejaVuSans-33" x="341.365234"/>
     </g>
    </g>
    <g id="line2d_23">
     <path d="M 59.14375 79.450938 
L 69.14375 79.450938 
L 79.14375 79.450938 
" style="fill: none; stroke: #d62728; stroke-width: 1.5; stroke-linecap: square"/>
    </g>
    <g id="text_20">
     <!-- Kaggle4 -->
     <g transform="translate(87.14375 82.950938) scale(0.1 -0.1)">
      <use xlink:href="#DejaVuSans-4b"/>
      <use xlink:href="#DejaVuSans-61" x="63.826172"/>
      <use xlink:href="#DejaVuSans-67" x="125.105469"/>
      <use xlink:href="#DejaVuSans-67" x="188.582031"/>
      <use xlink:href="#DejaVuSans-6c" x="252.058594"/>
      <use xlink:href="#DejaVuSans-65" x="279.841797"/>
      <use xlink:href="#DejaVuSans-34" x="341.365234"/>
     </g>
    </g>
    <g id="line2d_24">
     <path d="M 59.14375 94.129063 
L 69.14375 94.129063 
L 79.14375 94.129063 
" style="fill: none; stroke: #9467bd; stroke-width: 1.5; stroke-linecap: square"/>
    </g>
    <g id="text_21">
     <!-- Kaggle5 -->
     <g transform="translate(87.14375 97.629063) scale(0.1 -0.1)">
      <use xlink:href="#DejaVuSans-4b"/>
      <use xlink:href="#DejaVuSans-61" x="63.826172"/>
      <use xlink:href="#DejaVuSans-67" x="125.105469"/>
      <use xlink:href="#DejaVuSans-67" x="188.582031"/>
      <use xlink:href="#DejaVuSans-6c" x="252.058594"/>
      <use xlink:href="#DejaVuSans-65" x="279.841797"/>
      <use xlink:href="#DejaVuSans-35" x="341.365234"/>
     </g>
    </g>
    <g id="line2d_25">
     <path d="M 59.14375 108.807187 
L 69.14375 108.807187 
L 79.14375 108.807187 
" style="fill: none; stroke: #8c564b; stroke-width: 1.5; stroke-linecap: square"/>
    </g>
    <g id="text_22">
     <!-- KaggleAverage -->
     <g transform="translate(87.14375 112.307187) scale(0.1 -0.1)">
      <defs>
       <path id="DejaVuSans-41" d="M 2188 4044 
L 1331 1722 
L 3047 1722 
L 2188 4044 
z
M 1831 4666 
L 2547 4666 
L 4325 0 
L 3669 0 
L 3244 1197 
L 1141 1197 
L 716 0 
L 50 0 
L 1831 4666 
z
" transform="scale(0.015625)"/>
       <path id="DejaVuSans-76" d="M 191 3500 
L 800 3500 
L 1894 563 
L 2988 3500 
L 3597 3500 
L 2284 0 
L 1503 0 
L 191 3500 
z
" transform="scale(0.015625)"/>
      </defs>
      <use xlink:href="#DejaVuSans-4b"/>
      <use xlink:href="#DejaVuSans-61" x="63.826172"/>
      <use xlink:href="#DejaVuSans-67" x="125.105469"/>
      <use xlink:href="#DejaVuSans-67" x="188.582031"/>
      <use xlink:href="#DejaVuSans-6c" x="252.058594"/>
      <use xlink:href="#DejaVuSans-65" x="279.841797"/>
      <use xlink:href="#DejaVuSans-41" x="341.365234"/>
      <use xlink:href="#DejaVuSans-76" x="403.898438"/>
      <use xlink:href="#DejaVuSans-65" x="463.078125"/>
      <use xlink:href="#DejaVuSans-72" x="524.601562"/>
      <use xlink:href="#DejaVuSans-61" x="565.714844"/>
      <use xlink:href="#DejaVuSans-67" x="626.994141"/>
      <use xlink:href="#DejaVuSans-65" x="690.470703"/>
     </g>
    </g>
   </g>
  </g>
 </g>
 <defs>
  <clipPath id="pebae519d88">
   <rect x="50.14375" y="22.318125" width="357.12" height="266.112"/>
  </clipPath>
 </defs>
</svg>
